<svg id="Calque_1" data-name="Calque 1" xmlns="http://www.w3.org/2000/svg" viewBox="0 0 120 120"><defs><style>.cls-1{fill:#008891;}.cls-2{fill:#fff;}</style></defs><title>Plan de travail 1</title><circle class="cls-1" cx="60" cy="60" r="44.5"/><path class="cls-2" d="M92.53,42.87V76.06a2.19,2.19,0,0,1-4.37,0V60.2H86.28a.92.92,0,0,1-.92-.91v-11A6.28,6.28,0,0,1,91.65,42a.92.92,0,0,1,.63.25A.87.87,0,0,1,92.53,42.87Z"/><path class="cls-2" d="M43.73,43.87V54a5.89,5.89,0,0,1-5.87,5.88h0v15.9a2.21,2.21,0,0,1-4.42,0V59.88h0A5.89,5.89,0,0,1,27.47,54V43.87a2.21,2.21,0,0,1,2.21-2.21,2.24,2.24,0,0,1,1.56.65,2.19,2.19,0,0,1,.64,1.56v8.25h1.51V43.87a2.21,2.21,0,0,1,4.42,0v8.25h1.51V43.87a2.21,2.21,0,0,1,2.21-2.21,2.24,2.24,0,0,1,1.56.65A2.19,2.19,0,0,1,43.73,43.87Z"/><path class="cls-2" d="M75.35,50.12a15.1,15.1,0,0,0-5.9-6.18,16.84,16.84,0,0,0-8.56-2.17H59v6.17h2a8.18,8.18,0,0,1,6.75,2.85C69.21,52.7,70,55.49,70,59.18V61.1c0,3.56-.83,6.29-2.38,8.2a8.19,8.19,0,0,1-6.76,2.87H59v6.17h2a17,17,0,0,0,8.55-2.21A15,15,0,0,0,75.39,70a19.22,19.22,0,0,0,2.08-9.07V59.23A19.22,19.22,0,0,0,75.35,50.12Z"/><polygon class="cls-2" points="57.2 47.94 57.2 41.77 49.71 41.77 49.71 78.34 57.2 78.34 57.2 72.17 57.2 47.94"/></svg>